inDegrees=no
num_controls=7
num_derivatives=13
num_iterations=38
num_multipliers=7
num_parameters=0
num_slacks=7
num_states=26
objective=0.426650
objective_accelerations=0.058708
objective_balance=0.001184
objective_effort=0.015398
objective_height=0.345391
objective_ligament=0.005968
solver_duration=571.789233
status=Solve_Succeeded
success=true
DataType=double
version=3
OpenSimVersion=4.5
endheader
time	/jointset/ground_pelvis/pelvis_tilt/value	/jointset/ground_pelvis/pelvis_tx/value	/jointset/ground_pelvis/pelvis_ty/value	/jointset/hip_l/hip_flexion_l/value	/jointset/hip_l/hip_adduction_l/value	/jointset/hip_l/hip_rotation_l/value	/jointset/back/lumbar_extension/value	/jointset/patellofemoral_l/patellar_flexion_l/value	/jointset/knee_l/knee_flexion_l/value	/jointset/knee_l/knee_adduction_l/value	/jointset/knee_l/knee_rotation_l/value	/jointset/ankle_l/ankle_angle_l/value	/jointset/subtalar_l/subtalar_angle_l/value	/jointset/ground_pelvis/pelvis_tilt/speed	/jointset/ground_pelvis/pelvis_tx/speed	/jointset/ground_pelvis/pelvis_ty/speed	/jointset/hip_l/hip_flexion_l/speed	/jointset/hip_l/hip_adduction_l/speed	/jointset/hip_l/hip_rotation_l/speed	/jointset/back/lumbar_extension/speed	/jointset/patellofemoral_l/patellar_flexion_l/speed	/jointset/knee_l/knee_flexion_l/speed	/jointset/knee_l/knee_adduction_l/speed	/jointset/knee_l/knee_rotation_l/speed	/jointset/ankle_l/ankle_angle_l/speed	/jointset/subtalar_l/subtalar_angle_l/speed	/forceset/tau_hip_flexion_l	/forceset/tau_hip_adduction_l	/forceset/tau_hip_rotation_l	/forceset/tau_knee_flexion_l	/forceset/tau_ankle_angle_l	/forceset/tau_subtalar_angle_l	/forceset/tau_lumbar_extension	lambda_cid13_p0	lambda_cid13_p1	lambda_cid13_p2	lambda_cid13_p3	lambda_cid13_p4	lambda_cid13_p5	lambda_cid14_p0	/jointset/ground_pelvis/pelvis_tilt/accel	/jointset/ground_pelvis/pelvis_tx/accel	/jointset/ground_pelvis/pelvis_ty/accel	/jointset/hip_l/hip_flexion_l/accel	/jointset/hip_l/hip_adduction_l/accel	/jointset/hip_l/hip_rotation_l/accel	/jointset/back/lumbar_extension/accel	/jointset/patellofemoral_l/patellar_flexion_l/accel	/jointset/knee_l/knee_flexion_l/accel	/jointset/knee_l/knee_adduction_l/accel	/jointset/knee_l/knee_rotation_l/accel	/jointset/ankle_l/ankle_angle_l/accel	/jointset/subtalar_l/subtalar_angle_l/accel	gamma_cid13_p0	gamma_cid13_p1	gamma_cid13_p2	gamma_cid13_p3	gamma_cid13_p4	gamma_cid13_p5	gamma_cid14_p0
1	-0.4533469519928912	-0.002601492980942858	0.5920718842785637	1.707578764650248	-0.3454153095702553	0.1248754142810321	-0.4361327383376118	1.513749244991436	1.513749244991476	0.07502244787844145	-0.1740753018882744	0.4352867096556164	0.2516078946915275	-0.1505131480268476	0.00176942034785363	0.02404532316242568	0.05503500846160274	0.002257316432918567	-0.0378952588098766	0.0006478732371711219	-0.1249024822524185	-0.1249024822524229	-0.008959315397739569	0.00494792959215494	-0.04049031415250224	-0.02102489228911259	-0.2393047162490169	0.0829467033520446	-0.01660880576816771	-0.2914533035076763	-0.01802997665886304	-0.0127669358530376	0.2086546610687685	-41.60013898435743	23.41665102980955	-16.10840783695788	4.32575480484021	-542.9944510419534	-30.26439955062291	-0.02377208190588716	1.596361349909369	0.2506026334732222	2.030173296537785	-6.800503092586355	-0.2462746935785348	-1.212963113669206	-0.1544768343993848	-5.556230222971689	-5.556230222971659	-1.230278230575462	-0.05095867381655728	-0.8445797360681929	-0.9120627810413534	1.17341977825407e-09	-1.655650630104505e-07	-1.501534791446141e-07	-2.248475165639848e-08	-2.121285883981138e-09	-2.376802584615896e-07	1.572792914203788e-08
1.01	-0.4547725707595448	-0.002571133519630705	0.592413573212627	1.707789911732229	-0.3454050289327437	0.1244379816218266	-0.4361327475365162	1.512223178611455	1.512223178611446	0.0748695208943073	-0.1740279955222973	0.4348398228938202	0.2513522282919353	-0.1345518790938021	0.004322731343314627	0.04427842518189554	-0.01283314448605984	-0.0002381968401375262	-0.04970978373495199	-0.0006272367825239507	-0.1802695531013195	-0.1802695531013176	-0.02153152720889049	0.004413282625151189	-0.04886439394368489	-0.03014753023701064	-0.2400933215942892	0.08280565005863286	-0.01662845346802645	-0.2901335595740034	-0.01871386980933091	-0.01268967262165912	0.2091828364142823	-41.76508550597211	23.33716865844491	-16.01028768612517	4.188142317032155	-542.784777132148	-30.18305188681039	-0.02377681385094523	1.604818987686844	0.2607271121126868	2.01777220456054	-6.784103645901038	-0.2567063262289052	-1.18347158071918	-0.1106566482326072	-5.52076408981351	-5.520764089813001	-1.256518643504429	-0.06978411816241167	-0.8304349036668636	-0.9181743427574752	2.948030622909643e-09	-2.268096191393815e-07	-2.111777910469917e-07	-3.554006517227865e-08	-3.386647257642107e-09	-3.408262873607928e-07	2.327575802061047e-08
1.02	-0.4560368149723006	-0.002514634592458651	0.5929571718768621	1.707321550834629	-0.3454208067643775	0.1238788488335408	-0.4361448335480971	1.510144677808191	1.510144677808158	0.07459370659550434	-0.1739890489079828	0.4343098727735729	0.2510041735046405	-0.1182382372533905	0.006997313519833736	0.06442726919786572	-0.08086658743555364	-0.00295437739551133	-0.06223528461175575	-0.001767489301329638	-0.2353893669087822	-0.2353893669087739	-0.03353677850486805	0.003275979257335302	-0.05710298585580708	-0.03950256982864584	-0.2408819269402893	0.08266459676479029	-0.01664810116544903	-0.2888138156402341	-0.01939776295977182	-0.01261240939101522	0.2097110117590116	-41.93159165772084	23.25360547499341	-15.90654351604233	4.036350864289426	-542.681453441335	-30.11786367942906	-0.02378375134095671	1.666835931382825	0.2748568696847035	2.013321695837832	-6.833561092952615	-0.2904081500420224	-1.355158304014711	-0.1275053342206747	-5.506778814684026	-5.506778814683968	-1.11688612754087	-0.1714899539788833	-0.8174821602563426	-0.9585431097888035	4.209737649659846e-09	-2.559787295287153e-07	-2.360886690908369e-07	-3.700398528906264e-08	-8.285033470047888e-09	-4.136667628441054e-07	3.026577202864964e-08
1.03	-0.4571382081106499	-0.002431141529508429	0.5937018150827944	1.706174069677691	-0.3454641685540495	0.1231911900468362	-0.4361670334161333	1.50751515877034	1.507515158770311	0.07420076321006164	-0.1739632517944291	0.4336970241347738	0.250561800312589	-0.1021905564602865	0.009685470775263178	0.08448495840197996	-0.1484496647951685	-0.005687766155537527	-0.07535071534536687	-0.002584142834574562	-0.2905792105675182	-0.2905792105675147	-0.0449860097282421	0.001909877976515418	-0.06556437598659502	-0.0489745324618289	-0.240637626118171	0.0827702480853325	-0.01656844875573829	-0.2882679189692043	-0.01938382068421694	-0.01261223986678642	0.2094310743116476	-41.89052519035967	23.2128807549325	-15.8618309213878	4.038770425954593	-542.4271746629115	-30.07268964238459	-0.02382377491897096	1.551210837721689	0.2634132305975829	1.999527820730677	-6.69368254691909	-0.2602325971469945	-1.297864048809118	-0.04549413952361363	-5.534810119671563	-5.534810119672668	-1.149065226790394	-0.1152773251242139	-0.875123760078775	-0.941815963551597	5.46621096398244e-09	-2.848205394513182e-07	-2.60631042707554e-07	-3.8349625881366e-08	-1.32204913644817e-08	-4.861979979864393e-07	3.725009404821397e-08
1.04	-0.4580836291041506	-0.002321243278579378	0.594646542238369	1.704356157449198	-0.3455339499029523	0.1223707512345523	-0.4361947495748106	1.504331796700261	1.504331796700254	0.07369530279147164	-0.1739503371156388	0.4329966303306145	0.250024648869508	-0.08704380828930221	0.01227835111559937	0.1044440591274982	-0.2149528017329483	-0.008238289242052242	-0.08879128970998902	-0.00287074743370572	-0.3461579733543805	-0.3461579733543821	-0.05604018523383997	0.0006994922960584547	-0.07461201894093539	-0.05845822003375709	-0.240393325296595	0.08287589940544206	-0.01648879634473763	-0.2877220222981418	-0.0193698784086698	-0.01261207034329518	0.2091511368636927	-41.85119132247797	23.16817793144303	-15.81159333019429	4.029062572176084	-542.2815992694501	-30.04186445163398	-0.02386633923304228	1.486649406959244	0.2558014866658562	1.993604000118614	-6.617573008585616	-0.2538350153396477	-1.42018703021669	-0.02149554739688614	-5.584562640309294	-5.584562640309273	-1.03787498398574	-0.1403468339061702	-0.9347327249671628	-0.9608880975378594	4.683131227781122e-09	-3.08832477016785e-07	-2.817307747819446e-07	-4.284640996819491e-08	-1.767837673674061e-08	-5.100256278536226e-07	3.82170676076084e-08
1.05	-0.4588810148955367	-0.002185710363594658	0.5957903787887027	1.701877497512066	-0.3456282136622144	0.1214146747676383	-0.4362232273818347	1.500591048536572	1.500591048536561	0.07308120402902979	-0.1739483256584816	0.4322032494972589	0.2493930655683408	-0.07248374354958903	0.01483002284394215	0.1243073477063726	-0.2807024705004624	-0.01057490897658712	-0.1024127713302424	-0.002783362039790922	-0.4020224760145029	-0.4020224760144948	-0.06674971380236235	-0.000229127746201371	-0.0841224855312936	-0.06781933467416684	-0.2403113290041402	0.08300691908839283	-0.01636612247554275	-0.2867491108989613	-0.01950435003472907	-0.01259911735419642	0.209046379048724	-41.83671688069934	23.10228932904976	-15.73514898970398	3.931252212248513	-541.9721370108987	-29.97046305223506	-0.02390668055036039	1.433126951454937	0.2551091249242031	1.98030133272541	-6.54215561211686	-0.2175946663316117	-1.331437749243653	0.03007337863959334	-5.59202438049227	-5.592024380490872	-1.083025164447597	-0.05899184596878308	-0.9679679987189718	-0.9177681002599977	3.836315458750943e-09	-3.326934810710913e-07	-3.027229243081375e-07	-4.744166728922772e-08	-2.212133796768157e-08	-5.323312700559578e-07	3.899599902762256e-08
1.06	-0.4595343116507294	-0.002024608909525339	0.5971323702340096	1.698743642526973	-0.3457446474615803	0.1203227216801879	-0.4362495877760186	1.496290729285955	1.496290729285938	0.07236090330708371	-0.1739535748530346	0.4313130111235123	0.248669062130175	-0.05822600105075528	0.01739205893251923	0.1440750381233901	-0.3459918113192902	-0.01267229726390975	-0.115966613803071	-0.002447264811730728	-0.4580721907397866	-0.4580721907397693	-0.07728057721739766	-0.0007526380517768234	-0.09398352702762265	-0.0769422474332796	-0.2402293327118649	0.083137938771065	-0.0162434486052093	-0.2857761994997653	-0.01963882166083454	-0.01258616436560256	0.2089416212335455	-41.82456167572668	23.03259465189494	-15.65328611851989	3.825712080027219	-541.7750061756541	-29.91361656775297	-0.02395023826452201	1.426184958783749	0.2578743587124924	1.974484367747217	-6.525507418848341	-0.2059887258971024	-1.406659200731488	0.02824681943293913	-5.621605053341533	-5.621605053341604	-1.002141953288452	-0.05932488656915151	-1.004847706161713	-0.9132477212785034	3.48704130354149e-09	-3.791162381155992e-07	-3.255866111901468e-07	-5.663733707846492e-08	-2.680740994371499e-08	-5.776938881040458e-07	3.888994736209428e-08
1.07	-0.4600464274714645	-0.001837840395574347	0.5986714944619085	1.694959276192466	-0.3458809725539914	0.1190943177897539	-0.4362714583993102	1.491428935160451	1.491428935160438	0.07153729769696412	-0.1739625706181581	0.4303222281401273	0.2478547715970413	-0.044240493276499	0.01996254039072158	0.1637270903073038	-0.4107926994417216	-0.01456624520247561	-0.1297940481577169	-0.001892488100659444	-0.5143230775134175	-0.5143230775134018	-0.08733744204712077	-0.001033254461066529	-0.1042512661112726	-0.08590577178312379	-0.2399837105583432	0.08331091805796764	-0.01609448456419606	-0.2845010209896128	-0.01991559427150769	-0.01256424742332106	0.2087195783694485	-41.83759163139534	22.94764228601081	-15.55097297018108	3.788051820723033	-541.2899671395917	-29.81938444085912	-0.02400180892957994	1.378234386316987	0.2567561696719859	1.957151703651441	-6.444065955767265	-0.1770697090403365	-1.382767174399387	0.07424885996071626	-5.63230470732411	-5.632304707324029	-0.9920139011551856	-0.01053876607867853	-1.04948478581111	-0.8862816888644839	3.164232127790589e-09	-4.267390884042669e-07	-3.485498479315081e-07	-6.607770965856409e-08	-3.150641334235971e-08	-6.242829410375462e-07	3.873682212818609e-08
1.08	-0.4604199880745696	-0.001625342840981172	0.600406456423627	1.690529563687334	-0.346035431502024	0.1177252432313914	-0.4362867501028089	1.48600353732362	1.486003537323622	0.07061621240814882	-0.1739739942969437	0.4292264182106647	0.2469511704410055	-0.03051495751938131	0.02253786706095597	0.1832425848885949	-0.4750610454372204	-0.01629906838914801	-0.1441007473751048	-0.001131480868947038	-0.5707929330050975	-0.5707929330050825	-0.09677651301050365	-0.001238220789140315	-0.1149889162487343	-0.09480437201405921	-0.239738088404969	0.08348389734466857	-0.01594552052242761	-0.283225842479474	-0.0201923668822279	-0.01254233048141121	0.2084975355051728	-41.85358103470779	22.85919323325176	-15.44351614573519	3.745980425651401	-540.9215841248275	-29.73937802268587	-0.02405707471270514	1.374190555356372	0.2588434011186837	1.947172847222662	-6.418998993461881	-0.173763775518306	-1.50251217327964	0.06949292356198357	-5.665398796951249	-5.665398796951212	-0.8785831800205265	-0.04419487032582273	-1.098829916924405	-0.9002628974967796	-1.484380475421238e-09	-4.461440865833053e-07	-3.10228132862513e-07	-7.199412577354054e-08	-3.256323585099152e-08	-5.593536965628531e-07	2.302430897760139e-08
